<svg xmlns="http://www.w3.org/2000/svg" viewBox="0 0 256 256" role="img" aria-labelledby="title desc">
  <title id="title">Gmail logo</title>
  <desc id="desc">Multicolor Gmail style M icon for email link.</desc>
  <rect width="256" height="256" rx="32" fill="#ffffff"/>
  <path d="M38 63c0-13.807 11.193-25 25-25h6v151H38V63Z" fill="#4285F4"/>
  <path d="M187 38h6c13.807 0 25 11.193 25 25v126h-31V38Z" fill="#0F9D58"/>
  <path d="M38 63c0-13.807 11.193-25 25-25h10l55 42 55-42h10c13.807 0 25 11.193 25 25v7l-90 65L38 70v-7Z" fill="#EA4335"/>
  <path d="m38 70 51 38V38H63c-13.807 0-25 11.193-25 25v7Z" fill="#C5221F" opacity="0.95"/>
  <path d="m218 70-51 38V38h26c13.807 0 25 11.193 25 25v7Z" fill="#F9AB00"/>
  <path d="m89 108 39 27 39-27v81H89v-81Z" fill="#ffffff" opacity="0.01"/>
</svg>