<svg xmlns="http://www.w3.org/2000/svg" width="486" height="340" viewBox="0 0 486 340" role="img" aria-labelledby="title desc">
  <title id="title">KakaoTalk Open Chat</title>
  <desc id="desc">KakaoTalk logo image used for the open chat link.</desc>
  <rect width="486" height="340" fill="#FEE500"/>
  <g transform="translate(65 35)">
    <path d="M179 0C79 0 0 61 0 139c0 48 30 90 75 115l-15 61c-1 5 5 9 10 6l65-42c14 2 28 3 44 3 99 0 179-62 179-143S278 0 179 0Z" fill="#3C1E1E"/>
    <g fill="#FEE500">
      <rect x="40" y="92" width="64" height="14" rx="7"/>
      <rect x="65" y="92" width="14" height="96" rx="7"/>
      <path d="M121 188h-18l42-96h19l42 96h-18l-10-24h-47l-10 24Zm16-38h35l-17-41-18 41Z"/>
      <rect x="216" y="92" width="14" height="96" rx="7"/>
      <rect x="194" y="92" width="58" height="14" rx="7"/>
      <rect x="272" y="92" width="14" height="96" rx="7"/>
      <path d="M315 92h14v82h46v14h-60V92Z"/>
    </g>
  </g>
</svg>
