<svg width="1200" height="630" viewBox="0 0 1200 630" fill="none" xmlns="http://www.w3.org/2000/svg" role="img" aria-labelledby="title desc">
  <title id="title">박경록 대표 공유 썸네일</title>
  <desc id="desc">파스텔 배경 위에 웃는 캐릭터 아바타가 중앙에 배치된 박경록 대표 썸네일 이미지</desc>
  <defs>
    <radialGradient id="bgGlowLeft" cx="0" cy="0" r="1" gradientUnits="userSpaceOnUse" gradientTransform="translate(170 180) rotate(18) scale(430 280)">
      <stop stop-color="#FFC6AF"/>
      <stop offset="1" stop-color="#FFC6AF" stop-opacity="0"/>
    </radialGradient>
    <radialGradient id="bgGlowTopRight" cx="0" cy="0" r="1" gradientUnits="userSpaceOnUse" gradientTransform="translate(1010 140) rotate(180) scale(360 250)">
      <stop stop-color="#BDF5E6"/>
      <stop offset="1" stop-color="#BDF5E6" stop-opacity="0"/>
    </radialGradient>
    <radialGradient id="bgGlowBottomLeft" cx="0" cy="0" r="1" gradientUnits="userSpaceOnUse" gradientTransform="translate(190 540) rotate(-10) scale(360 250)">
      <stop stop-color="#BDEFE3"/>
      <stop offset="1" stop-color="#BDEFE3" stop-opacity="0"/>
    </radialGradient>
    <linearGradient id="bgBase" x1="76" y1="24" x2="1140" y2="610" gradientUnits="userSpaceOnUse">
      <stop stop-color="#FFF0EA"/>
      <stop offset="0.5" stop-color="#FFF9F2"/>
      <stop offset="0.8" stop-color="#F0FFF8"/>
      <stop offset="1" stop-color="#FFF1E7"/>
    </linearGradient>
    <filter id="softBlur" x="-20%" y="-20%" width="140%" height="140%" color-interpolation-filters="sRGB">
      <feGaussianBlur stdDeviation="30"/>
    </filter>
    <linearGradient id="hairGrad" x1="684" y1="58" x2="752" y2="376" gradientUnits="userSpaceOnUse">
      <stop stop-color="#515155"/>
      <stop offset="1" stop-color="#59595D"/>
    </linearGradient>
    <radialGradient id="faceGrad" cx="0" cy="0" r="1" gradientUnits="userSpaceOnUse" gradientTransform="translate(709 316) rotate(90) scale(220 198)">
      <stop stop-color="#FFF8F5"/>
      <stop offset="1" stop-color="#FDE9E1"/>
    </radialGradient>
    <linearGradient id="neckGrad" x1="707" y1="492" x2="707" y2="544" gradientUnits="userSpaceOnUse">
      <stop stop-color="#FFE5DB"/>
      <stop offset="1" stop-color="#FBD9CF"/>
    </linearGradient>
    <linearGradient id="shirtGrad" x1="710" y1="514" x2="710" y2="756" gradientUnits="userSpaceOnUse">
      <stop stop-color="#252022"/>
      <stop offset="1" stop-color="#181416"/>
    </linearGradient>
    <clipPath id="canvasRound">
      <rect width="1200" height="630" rx="36"/>
    </clipPath>
  </defs>

  <g clip-path="url(#canvasRound)">
    <rect width="1200" height="630" fill="url(#bgBase)"/>
    <rect width="1200" height="630" fill="url(#bgGlowLeft)"/>
    <rect width="1200" height="630" fill="url(#bgGlowTopRight)"/>
    <rect width="1200" height="630" fill="url(#bgGlowBottomLeft)"/>

    <g filter="url(#softBlur)" opacity="0.35">
      <ellipse cx="258" cy="238" rx="210" ry="126" fill="#FFD7C2"/>
      <ellipse cx="984" cy="200" rx="224" ry="148" fill="#C8F6E8"/>
      <ellipse cx="232" cy="566" rx="248" ry="146" fill="#CCF5EA"/>
      <ellipse cx="1018" cy="560" rx="212" ry="128" fill="#FFDCC9"/>
    </g>

    <g opacity="0.16" stroke="#C2C5D4" stroke-width="2">
      <path d="M920 36L1036 102L998 208L878 166L920 36Z"/>
      <path d="M878 166L998 208L910 318L812 272L878 166Z"/>
      <path d="M998 208L1110 330L995 392L910 318L998 208Z"/>
      <path d="M812 272L910 318L840 454L744 392L812 272Z"/>
      <path d="M56 432L194 450L254 564L112 580L20 510L56 432Z"/>
      <path d="M112 580L254 564L314 668L152 688L66 632L112 580Z"/>
      <path d="M1110 330L1148 462"/>
      <path d="M1036 102L1186 116"/>
      <path d="M944 72L844 232"/>
    </g>

    <g opacity="0.42" fill="#FFFFFF">
      <circle cx="998" cy="66" r="5"/>
      <circle cx="1038" cy="66" r="5"/>
      <circle cx="1078" cy="66" r="5"/>
      <circle cx="1118" cy="66" r="5"/>
      <circle cx="1158" cy="66" r="5"/>
      <circle cx="1198" cy="66" r="5"/>
      <circle cx="998" cy="106" r="5"/>
      <circle cx="1038" cy="106" r="5"/>
      <circle cx="1078" cy="106" r="5"/>
      <circle cx="1118" cy="106" r="5"/>
      <circle cx="1158" cy="106" r="5"/>
      <circle cx="1198" cy="106" r="5"/>
      <circle cx="998" cy="146" r="5"/>
      <circle cx="1038" cy="146" r="5"/>
      <circle cx="1078" cy="146" r="5"/>
      <circle cx="1118" cy="146" r="5"/>
      <circle cx="1158" cy="146" r="5"/>
      <circle cx="1198" cy="146" r="5"/>
      <circle cx="998" cy="186" r="5"/>
      <circle cx="1038" cy="186" r="5"/>
      <circle cx="1078" cy="186" r="5"/>
      <circle cx="1118" cy="186" r="5"/>
      <circle cx="1158" cy="186" r="5"/>
      <circle cx="1198" cy="186" r="5"/>
    </g>

    <g opacity="0.16" fill="#AFC3C7">
      <circle cx="48" cy="540" r="4"/>
      <circle cx="84" cy="540" r="4"/>
      <circle cx="120" cy="540" r="4"/>
      <circle cx="156" cy="540" r="4"/>
      <circle cx="192" cy="540" r="4"/>
      <circle cx="228" cy="540" r="4"/>
      <circle cx="48" cy="580" r="4"/>
      <circle cx="84" cy="580" r="4"/>
      <circle cx="120" cy="580" r="4"/>
      <circle cx="156" cy="580" r="4"/>
      <circle cx="192" cy="580" r="4"/>
      <circle cx="228" cy="580" r="4"/>
      <circle cx="48" cy="620" r="4"/>
      <circle cx="84" cy="620" r="4"/>
      <circle cx="120" cy="620" r="4"/>
      <circle cx="156" cy="620" r="4"/>
      <circle cx="192" cy="620" r="4"/>
      <circle cx="228" cy="620" r="4"/>
    </g>

    <g transform="translate(0 -2)">
      <path d="M542 596C556 498 628 440 710 440C792 440 864 498 878 596V668H542V596Z" fill="url(#shirtGrad)" stroke="#241F21" stroke-width="4"/>
      <ellipse cx="710" cy="496" rx="42" ry="28" fill="url(#neckGrad)"/>
      <path d="M570 180C570 98 634 40 712 40C790 40 854 98 854 180V286H570V180Z" fill="url(#hairGrad)" stroke="#2C2527" stroke-width="8"/>
      <path d="M602 202C610 154 624 113 642 86" stroke="#2A2527" stroke-width="7" stroke-linecap="round"/>
      <path d="M626 206C632 164 642 128 654 100" stroke="#2A2527" stroke-width="6" stroke-linecap="round"/>
      <path d="M652 208C656 155 664 114 670 74" stroke="#2A2527" stroke-width="6" stroke-linecap="round"/>
      <path d="M678 210C682 150 688 112 692 66" stroke="#2A2527" stroke-width="7" stroke-linecap="round"/>
      <path d="M706 210C706 159 708 117 710 82" stroke="#2A2527" stroke-width="7" stroke-linecap="round"/>
      <path d="M734 210C736 157 742 119 748 88" stroke="#2A2527" stroke-width="7" stroke-linecap="round"/>
      <path d="M760 208C756 158 750 118 744 80" stroke="#2A2527" stroke-width="6" stroke-linecap="round"/>
      <path d="M786 206C780 160 770 124 760 98" stroke="#2A2527" stroke-width="6" stroke-linecap="round"/>
      <path d="M812 204C804 157 792 121 778 90" stroke="#2A2527" stroke-width="7" stroke-linecap="round"/>

      <path d="M576 276C576 226 606 198 644 182H778C818 198 846 226 846 276V334C846 434 784 508 710 508C636 508 574 434 574 334L576 276Z" fill="url(#faceGrad)" stroke="#2A2527" stroke-width="8"/>
      <path d="M574 264C598 256 625 252 654 250H766C795 252 822 256 846 264" stroke="#EAA39A" stroke-width="14" stroke-linecap="round" opacity="0.55"/>

      <path d="M548 286C524 286 506 306 506 334C506 362 524 382 548 382C562 382 574 374 584 358V310C574 294 562 286 548 286Z" fill="#FFF5EF" stroke="#2A2527" stroke-width="8"/>
      <path d="M872 286C896 286 914 306 914 334C914 362 896 382 872 382C858 382 846 374 836 358V310C846 294 858 286 872 286Z" fill="#FFF5EF" stroke="#2A2527" stroke-width="8"/>
      <path d="M534 324C546 328 554 340 556 354" stroke="#2A2527" stroke-width="7" stroke-linecap="round"/>
      <path d="M886 324C874 328 866 340 864 354" stroke="#2A2527" stroke-width="7" stroke-linecap="round"/>

      <ellipse cx="652" cy="330" rx="12" ry="20" fill="#181418"/>
      <ellipse cx="768" cy="330" rx="12" ry="20" fill="#181418"/>
      <ellipse cx="602" cy="386" rx="38" ry="26" fill="#FFA8A0" fill-opacity="0.88"/>
      <ellipse cx="818" cy="386" rx="38" ry="26" fill="#FFA8A0" fill-opacity="0.88"/>
      <path d="M684 416C702 432 732 432 750 416" stroke="#181418" stroke-width="9" stroke-linecap="round"/>
    </g>

    <g opacity="0.85" fill="#FFFFFF">
      <path d="M1154 566L1166 590L1192 594L1173 612L1178 638L1154 626L1130 638L1135 612L1116 594L1142 590L1154 566Z" fill-opacity="0.78"/>
    </g>
  </g>
</svg>
