<svg width="1200" height="760" viewBox="0 0 1200 760" fill="none" xmlns="http://www.w3.org/2000/svg">
  <rect width="1200" height="760" rx="36" fill="#0B1220"/>
  <rect x="36" y="36" width="1128" height="688" rx="28" fill="#111827" stroke="#1F2937"/>
  <rect x="72" y="72" width="348" height="616" rx="24" fill="#0F172A" stroke="#1E293B"/>
  <rect x="456" y="72" width="300" height="616" rx="24" fill="#0F172A" stroke="#1E293B"/>
  <rect x="792" y="72" width="336" height="616" rx="24" fill="#0F172A" stroke="#1E293B"/>

  <text x="104" y="124" fill="#E5E7EB" font-family="Inter, Pretendard, Arial, sans-serif" font-size="24" font-weight="700">배열 · 정렬</text>
  <text x="488" y="124" fill="#E5E7EB" font-family="Inter, Pretendard, Arial, sans-serif" font-size="24" font-weight="700">트리 · 순회</text>
  <text x="824" y="124" fill="#E5E7EB" font-family="Inter, Pretendard, Arial, sans-serif" font-size="24" font-weight="700">그래프 · 탐색</text>

  <rect x="104" y="178" width="44" height="44" rx="12" fill="#1E3A8A"/>
  <rect x="152" y="178" width="44" height="44" rx="12" fill="#1D4ED8"/>
  <rect x="200" y="178" width="44" height="44" rx="12" fill="#2563EB"/>
  <rect x="248" y="178" width="44" height="44" rx="12" fill="#3B82F6"/>
  <rect x="296" y="178" width="44" height="44" rx="12" fill="#60A5FA"/>
  <text x="126" y="206" text-anchor="middle" fill="white" font-family="Inter, Pretendard, Arial, sans-serif" font-size="18" font-weight="700">4</text>
  <text x="174" y="206" text-anchor="middle" fill="white" font-family="Inter, Pretendard, Arial, sans-serif" font-size="18" font-weight="700">2</text>
  <text x="222" y="206" text-anchor="middle" fill="white" font-family="Inter, Pretendard, Arial, sans-serif" font-size="18" font-weight="700">6</text>
  <text x="270" y="206" text-anchor="middle" fill="white" font-family="Inter, Pretendard, Arial, sans-serif" font-size="18" font-weight="700">1</text>
  <text x="318" y="206" text-anchor="middle" fill="white" font-family="Inter, Pretendard, Arial, sans-serif" font-size="18" font-weight="700">3</text>
  <rect x="248" y="164" width="44" height="72" rx="14" fill="#F59E0B" fill-opacity="0.18" stroke="#FBBF24" stroke-width="3"/>
  <rect x="296" y="164" width="44" height="72" rx="14" fill="#10B981" fill-opacity="0.16" stroke="#34D399" stroke-width="3"/>
  <path d="M273 252C273 274 321 274 321 252" stroke="#FBBF24" stroke-width="4" stroke-linecap="round"/>
  <path d="M318 246L321 252L324 246" stroke="#FBBF24" stroke-width="4" stroke-linecap="round" stroke-linejoin="round"/>

  <rect x="104" y="304" width="284" height="300" rx="20" fill="#020617" stroke="#1E293B"/>
  <text x="124" y="340" fill="#93C5FD" font-family="Inter, Pretendard, Arial, sans-serif" font-size="19" font-weight="700">for i in range(n - 1):</text>
  <text x="124" y="384" fill="#C7D2FE" font-family="Inter, Pretendard, Arial, sans-serif" font-size="19">    for j in range(n - i - 1):</text>
  <rect x="116" y="402" width="258" height="42" rx="10" fill="#1D4ED8" fill-opacity="0.22" stroke="#60A5FA"/>
  <text x="124" y="430" fill="#DBEAFE" font-family="Inter, Pretendard, Arial, sans-serif" font-size="19">        if arr[j] &gt; arr[j + 1]:</text>
  <text x="124" y="474" fill="#C7D2FE" font-family="Inter, Pretendard, Arial, sans-serif" font-size="19">            arr[j], arr[j+1] = ...</text>

  <circle cx="604" cy="220" r="32" fill="#2563EB"/>
  <circle cx="540" cy="308" r="32" fill="#1D4ED8"/>
  <circle cx="668" cy="308" r="32" fill="#60A5FA"/>
  <circle cx="508" cy="404" r="28" fill="#94A3B8"/>
  <circle cx="572" cy="404" r="28" fill="#F59E0B"/>
  <circle cx="636" cy="404" r="28" fill="#34D399"/>
  <circle cx="700" cy="404" r="28" fill="#94A3B8"/>
  <path d="M590 246L554 286" stroke="#94A3B8" stroke-width="5" stroke-linecap="round"/>
  <path d="M618 246L654 286" stroke="#94A3B8" stroke-width="5" stroke-linecap="round"/>
  <path d="M532 336L514 378" stroke="#94A3B8" stroke-width="5" stroke-linecap="round"/>
  <path d="M548 336L566 378" stroke="#94A3B8" stroke-width="5" stroke-linecap="round"/>
  <path d="M660 336L642 378" stroke="#94A3B8" stroke-width="5" stroke-linecap="round"/>
  <path d="M676 336L694 378" stroke="#94A3B8" stroke-width="5" stroke-linecap="round"/>
  <rect x="552" y="176" width="104" height="88" rx="18" fill="#60A5FA" fill-opacity="0.15" stroke="#60A5FA" stroke-width="3"/>
  <rect x="535" y="285" width="74" height="46" rx="14" fill="#F59E0B" fill-opacity="0.16" stroke="#FBBF24" stroke-width="3"/>
  <path d="M572 466C572 492 540 500 528 520" stroke="#F59E0B" stroke-width="5" stroke-linecap="round"/>
  <path d="M528 520L534 516L528 512" stroke="#F59E0B" stroke-width="5" stroke-linecap="round" stroke-linejoin="round"/>
  <text x="488" y="570" fill="#E2E8F0" font-family="Inter, Pretendard, Arial, sans-serif" font-size="18">거쳐가는 노드 / 방문 완료 / 백트래킹 구분</text>

  <circle cx="908" cy="214" r="28" fill="#2563EB"/>
  <circle cx="996" cy="162" r="28" fill="#60A5FA"/>
  <circle cx="1046" cy="260" r="28" fill="#94A3B8"/>
  <circle cx="952" cy="340" r="28" fill="#F59E0B"/>
  <circle cx="854" cy="324" r="28" fill="#10B981"/>
  <path d="M934 198L970 176" stroke="#60A5FA" stroke-width="4" stroke-linecap="round"/>
  <path d="M1012 186L1032 236" stroke="#60A5FA" stroke-width="4" stroke-linecap="round"/>
  <path d="M1022 282L974 324" stroke="#94A3B8" stroke-width="4" stroke-linecap="round"/>
  <path d="M884 302L894 238" stroke="#10B981" stroke-width="4" stroke-linecap="round"/>
  <path d="M936 214C972 214 992 236 1015 250" stroke="#FBBF24" stroke-width="5" stroke-linecap="round"/>
  <path d="M1008 245L1015 250L1008 255" stroke="#FBBF24" stroke-width="5" stroke-linecap="round" stroke-linejoin="round"/>
  <rect x="836" y="420" width="248" height="158" rx="20" fill="#020617" stroke="#1E293B"/>
  <text x="862" y="460" fill="#DBEAFE" font-family="Inter, Pretendard, Arial, sans-serif" font-size="18" font-weight="700">queue = [A, C, D]</text>
  <text x="862" y="500" fill="#E5E7EB" font-family="Inter, Pretendard, Arial, sans-serif" font-size="18">현재 노드: B</text>
  <text x="862" y="540" fill="#E5E7EB" font-family="Inter, Pretendard, Arial, sans-serif" font-size="18">다음 노드: E</text>
  <text x="862" y="580" fill="#93C5FD" font-family="Inter, Pretendard, Arial, sans-serif" font-size="18">코드 줄 강조 + 상태 + 애니메이션</text>
</svg>
